<svg height="512pt" viewBox="0 0 512.00007 512" width="512pt" xmlns="http://www.w3.org/2000/svg"><path d="m372.933594 280.640625-55.769532 54c-16.066406-9.046875-46.839843-28.683594-80.304687-62.148437-33.46875-33.472657-53.328125-64.46875-62.523437-80.6875l53.980468-54.679688-136.304687-137.12109375-67.152344 66.70703175c-25.5 25.5-32.109375 64.300781-16.445313 96.546874 23.898438 49.210938 68 123.476563 142.359376 197.839844 74.363281 74.359375 148.628906 118.460938 197.839843 142.359375 11.660157 5.664063 24.171875 8.414063 36.605469 8.414063 21.957031 0 43.660156-8.582032 59.9375-24.859375l66.84375-67.074219zm43.945312 178.125c-13.460937 13.445313-33.875 16.957031-50.804687 8.738281-46.449219-22.558594-116.605469-64.238281-187.039063-134.667968-70.433594-70.433594-112.109375-140.589844-134.667968-187.039063-8.226563-16.9375-4.707032-37.359375 8.707031-50.777344l38.757812-38.5 80.222657 80.703125-45.984376 46.578125 5.550782 12.464844c.902344 2.023437 22.710937 50.222656 76.976562 104.488281 54.300782 54.300782 102.09375 75.65625 104.101563 76.539063l12.292969 5.40625 47.46875-45.964844 83.089843 83.226563zm34.753906-253.644531h-144.882812v-144.886719h39.96875v76.65625l136.890625-136.890625 28.261719 28.261719-136.890625 136.890625h76.652343zm0 0"/></svg>